<svg width="17" height="17" viewBox="0 0 17 17" fill="none" xmlns="http://www.w3.org/2000/svg">
<path fill-rule="evenodd" clip-rule="evenodd" d="M16.4941 8.74707C16.4941 13.0256 13.0256 16.4941 8.74707 16.4941C4.46857 16.4941 1 13.0256 1 8.74707C1 4.46857 4.46857 1 8.74707 1C13.0256 1 16.4941 4.46857 16.4941 8.74707Z" stroke="#5E7EF0" stroke-linecap="round" stroke-linejoin="round"/>
<path d="M8.74707 8.04281V3.81714" stroke="#5E7EF0" stroke-linecap="round" stroke-linejoin="round"/>
<path d="M15.79 8.74707H16.4943" stroke="#5E7EF0" stroke-linecap="round" stroke-linejoin="round"/>
<path d="M8.74707 1.70428V1" stroke="#5E7EF0" stroke-linecap="round" stroke-linejoin="round"/>
<path d="M1.70428 8.74707H1" stroke="#5E7EF0" stroke-linecap="round" stroke-linejoin="round"/>
<path d="M8.74707 15.7898V16.4941" stroke="#5E7EF0" stroke-linecap="round" stroke-linejoin="round"/>
<path fill-rule="evenodd" clip-rule="evenodd" d="M9.45153 8.747C9.45153 9.13577 9.13601 9.45128 8.74725 9.45128C8.35849 9.45128 8.04297 9.13577 8.04297 8.747C8.04297 8.35824 8.35849 8.04272 8.74725 8.04272C9.13601 8.04272 9.45153 8.35824 9.45153 8.747Z" stroke="#5E7EF0" stroke-linecap="round" stroke-linejoin="round"/>
<path d="M9.45117 9.45142L11.564 11.5643" stroke="#5E7EF0" stroke-linecap="round" stroke-linejoin="round"/>
</svg>
