<svg width="1440" height="167" viewBox="0 0 1440 167" fill="none" xmlns="http://www.w3.org/2000/svg">
<mask id="mask0_132_193" style="mask-type:alpha" maskUnits="userSpaceOnUse" x="0" y="0" width="1440" height="167">
<rect width="1440" height="167" fill="#141B24"/>
</mask>
<g mask="url(#mask0_132_193)">
<path d="M1497.24 76.1018L1481.86 94.7844C1468.67 84.454 1460.32 81.5967 1448.23 81.5967C1436.8 81.5967 1429.32 85.9926 1429.32 92.8063C1429.32 95.224 1430.2 96.9824 1431.74 98.3012C1435.26 100.939 1439.66 102.038 1455.48 105.554C1487.13 112.588 1499 120.501 1499 141.381C1499 163.361 1480.76 178.087 1450.86 178.087C1429.54 178.087 1414.38 172.592 1396.58 156.767L1413.06 138.304C1421.19 144.898 1427.79 149.294 1433.28 151.712C1438.78 153.91 1444.71 155.009 1451.52 155.009C1462.95 155.009 1471.09 150.832 1471.09 143.14C1471.09 140.282 1469.99 137.864 1467.79 136.326C1465.59 134.568 1462.95 133.249 1459.88 132.589C1456.8 131.71 1451.3 130.391 1443.39 128.633C1411.3 121.6 1402.07 113.687 1402.07 93.6855C1402.07 74.3434 1419.43 58.5181 1448.89 58.5181C1468.23 58.5181 1481.64 63.1338 1497.24 76.1018Z" fill="#0E1721"/>
<path d="M1393.78 64.0108L1388.73 89.0676C1383.01 87.529 1378.18 86.8696 1374.44 86.8696C1359.28 86.8696 1349.83 98.9584 1349.83 119.18V174.568H1321.25V62.2524H1347.85V78.7372C1353.78 66.6484 1363.01 60.7139 1375.98 60.7139C1380.82 60.7139 1386.75 61.8129 1393.78 64.0108Z" fill="#0E1721"/>
<path d="M1285.28 138.524L1301.33 156.108C1285.5 172.153 1270.34 178.087 1251.22 178.087C1214.95 178.087 1192.31 154.789 1192.31 118.962C1192.31 84.0144 1213.85 58.5181 1248.8 58.5181C1282.43 58.5181 1301.33 79.3987 1301.33 114.566C1301.33 118.742 1301.11 122.479 1300.89 125.776H1220.22C1222.86 143.14 1233.19 153.91 1251.88 153.91C1258.25 153.91 1263.52 152.811 1267.92 150.613C1272.54 148.415 1278.25 144.458 1285.28 138.524ZM1220.88 105.335H1273.42C1272.32 90.1687 1263.08 80.9373 1247.92 80.9373C1233.19 80.9373 1224.18 90.1687 1220.88 105.335Z" fill="#0E1721"/>
<path d="M1159.68 174.573L1128.03 123.36L1111.98 139.625V174.573H1083.41V18.5176H1111.98V107.975L1155.06 62.257H1189.35L1148.03 104.897L1191.55 174.573H1159.68Z" fill="#0E1721"/>
<path d="M1058.45 98.7408V174.57H1032.73V162.921C1025.7 172.592 1013.39 178.307 996.468 178.307C973.389 178.307 956.245 167.537 956.245 146.217C956.245 122.479 974.928 111.929 1004.82 106.653L1031.2 101.818V99.1804C1031.2 88.4104 1023.28 82.0363 1010.1 82.0363C1003.06 82.0363 997.127 83.355 992.511 86.2124C987.896 89.0697 981.961 93.6855 975.148 100.279L957.124 83.7946C971.411 66.8703 987.896 58.5181 1009.66 58.5181C1041.09 58.5181 1058.45 74.3434 1058.45 98.7408ZM1031.2 128.853V122.259L1012.29 126.215C993.171 130.391 984.159 134.568 984.159 144.239C984.159 151.272 990.533 155.448 1001.3 155.448C1017.79 155.448 1031.2 147.096 1031.2 128.853Z" fill="#0E1721"/>
<path d="M925.972 138.524L942.017 156.108C926.192 172.153 911.026 178.087 891.903 178.087C855.637 178.087 832.998 154.789 832.998 118.962C832.998 84.0144 854.538 58.5181 889.486 58.5181C923.115 58.5181 942.017 79.3987 942.017 114.566C942.017 118.742 941.797 122.479 941.577 125.776H860.912C863.55 143.14 873.88 153.91 892.563 153.91C898.937 153.91 904.212 152.811 908.608 150.613C913.224 148.415 918.938 144.458 925.972 138.524ZM861.572 105.335H914.103C913.004 90.1687 903.772 80.9373 888.606 80.9373C873.88 80.9373 864.869 90.1687 861.572 105.335Z" fill="#0E1721"/>
<path d="M817.947 118.304C817.947 154.351 796.626 177.649 768.053 177.649C753.327 177.649 742.117 172.814 734.424 162.923V214.136H705.851V62.2564H732.446V76.9828C740.578 64.894 752.447 58.9595 768.273 58.9595C797.066 58.9595 817.947 82.6975 817.947 118.304ZM788.934 118.304C788.934 97.204 778.383 83.5766 761.679 83.5766C744.974 83.5766 733.325 97.204 733.325 118.304C733.325 139.625 744.974 152.812 761.459 152.812C777.944 152.812 788.934 139.405 788.934 118.304Z" fill="#0E1721"/>
<path d="M684.187 39.1776L666.164 60.7176C657.152 53.2445 649.679 48.1892 643.305 45.5517C636.931 42.9141 629.678 41.5953 621.106 41.5953C603.742 41.5953 592.532 49.508 592.532 60.7176C592.532 64.6739 593.851 67.7511 596.269 70.1688C598.906 72.5866 602.643 74.5648 607.479 76.1033C612.314 77.6419 620.007 79.6201 630.557 82.0378C670.56 91.9287 685.286 100.721 686.166 127.536C686.166 157.208 662.208 178.309 624.403 178.309C610.556 178.309 598.467 176.111 588.136 171.934C577.806 167.539 566.816 160.065 555.167 149.515L573.63 127.755C583.96 136.767 592.752 143.141 600.005 146.438C607.259 149.735 615.611 151.493 625.062 151.493C643.305 151.493 655.614 143.361 655.614 129.953C655.614 125.777 654.295 122.7 651.877 120.282C646.822 115.227 640.008 113.249 623.524 109.732L616.051 107.974C574.289 97.8632 562.2 86.4338 562.2 61.5968C562.2 35.441 586.378 15 621.765 15C634.513 15 645.503 16.7584 654.735 20.4949C664.186 24.2314 673.857 30.3857 684.187 39.1776Z" fill="#0E1721"/>
<path d="M496.567 118.303C496.567 153.91 472.17 178.087 438.321 178.087C404.253 178.087 379.855 153.91 379.855 118.303C379.855 82.6956 404.253 58.5181 438.321 58.5181C472.17 58.5181 496.567 82.6956 496.567 118.303ZM408.869 118.303C408.869 140.062 420.518 153.91 438.321 153.91C455.905 153.91 467.554 140.062 467.554 118.303C467.554 96.9824 455.905 82.6956 438.321 82.6956C420.518 82.6956 408.869 96.9824 408.869 118.303Z" fill="#0E1721"/>
<path d="M375.872 64.0128L370.816 89.0695C365.102 87.531 360.266 86.8716 356.53 86.8716C341.364 86.8716 331.912 98.9604 331.912 119.182V174.57H303.339V62.2544H329.934V78.7391C335.869 66.6503 345.1 60.7158 358.068 60.7158C362.904 60.7158 368.838 61.8148 375.872 64.0128Z" fill="#0E1721"/>
<path d="M283.406 150.397L286.703 173.036C278.351 175.893 269.999 177.212 261.427 177.212C239.227 177.212 229.556 166.882 229.556 145.561V84.0184H209.555V62.2586H229.556V27.5308H258.13V62.2586H284.945V84.0184H258.13V142.045C258.13 149.737 261.427 152.375 269.339 152.375C273.296 152.375 277.911 151.716 283.406 150.397Z" fill="#0E1721"/>
<path d="M199.26 76.1018L183.875 94.7844C170.687 84.454 162.335 81.5967 150.246 81.5967C138.816 81.5967 131.343 85.9926 131.343 92.8063C131.343 95.224 132.223 96.9824 133.761 98.3012C137.278 100.939 141.674 102.038 157.499 105.554C189.15 112.588 201.019 120.501 201.019 141.381C201.019 163.361 182.776 178.087 152.883 178.087C131.563 178.087 116.397 172.592 98.5938 156.767L115.078 138.304C123.211 144.898 129.805 149.294 135.3 151.712C140.795 153.91 146.729 155.009 153.543 155.009C164.972 155.009 173.105 150.832 173.105 143.14C173.105 140.282 172.006 137.864 169.808 136.326C167.61 134.568 164.972 133.249 161.895 132.589C158.818 131.71 153.323 130.391 145.41 128.633C113.32 121.6 104.089 113.687 104.089 93.6855C104.089 74.3434 121.453 58.5181 150.905 58.5181C170.247 58.5181 183.655 63.1338 199.26 76.1018Z" fill="#0E1721"/>
<path d="M61.2325 174.573L50.6822 143.362H-17.2348L-28.0048 174.573H-58.9961L-3.16785 18.5176H37.2746L93.1029 174.573H61.2325ZM-8.44296 117.865H41.8904L35.7361 99.8422L31.9995 88.8524C25.6255 70.8291 20.3503 55.2235 16.6138 42.2556C13.5367 53.0256 7.82196 70.1697 -0.310501 93.6879L-2.50846 100.282L-8.44296 117.865Z" fill="#0E1721"/>
</g>
</svg>
