<svg width="14" height="20" viewBox="0 0 14 20" fill="none" xmlns="http://www.w3.org/2000/svg">
<path fill-rule="evenodd" clip-rule="evenodd" d="M3.34375 7.25C3.34375 5.09297 5.09297 3.34375 7.25 3.34375C9.40703 3.34375 11.1562 5.09297 11.1562 7.25C11.1562 9.40703 9.40703 11.1562 7.25 11.1562C5.09297 11.1562 3.34375 9.40703 3.34375 7.25V7.25Z" stroke="#5E7EF0" stroke-linecap="round" stroke-linejoin="round"/>
<path fill-rule="evenodd" clip-rule="evenodd" d="M3.34375 7.25C3.34375 5.09297 5.09297 3.34375 7.25 3.34375C9.40703 3.34375 11.1562 5.09297 11.1562 7.25C11.1562 9.40703 9.40703 11.1562 7.25 11.1562C5.09297 11.1562 3.34375 9.40703 3.34375 7.25V7.25Z" stroke="#5E7EF0" stroke-linecap="round" stroke-linejoin="round"/>
<path fill-rule="evenodd" clip-rule="evenodd" d="M7.25 1C10.7016 1 13.5 3.79844 13.5 7.25C13.5 13.5648 7.25 18.9688 7.25 18.9688C7.25 18.9688 1 13.5648 1 7.25C1 3.79844 3.79844 1 7.25 1V1Z" stroke="#5E7EF0" stroke-linecap="round" stroke-linejoin="round"/>
</svg>
