<svg width="225" height="34" viewBox="0 0 225 34" fill="none" xmlns="http://www.w3.org/2000/svg">
<path d="M224.374 13.3642L222.749 15.3378C221.356 14.2465 220.474 13.9447 219.197 13.9447C217.989 13.9447 217.2 14.4091 217.2 15.1289C217.2 15.3843 217.293 15.57 217.455 15.7093C217.827 15.9879 218.291 16.104 219.963 16.4755C223.306 17.2185 224.56 18.0544 224.56 20.2602C224.56 22.5821 222.633 24.1378 219.475 24.1378C217.223 24.1378 215.621 23.5573 213.74 21.8855L215.482 19.9352C216.341 20.6317 217.037 21.0961 217.618 21.3515C218.198 21.5837 218.825 21.6998 219.545 21.6998C220.752 21.6998 221.611 21.2586 221.611 20.446C221.611 20.1441 221.495 19.8887 221.263 19.7262C221.031 19.5404 220.752 19.4011 220.427 19.3315C220.102 19.2386 219.522 19.0993 218.686 18.9135C215.296 18.1705 214.321 17.3346 214.321 15.2217C214.321 13.1785 216.155 11.5067 219.266 11.5067C221.31 11.5067 222.726 11.9943 224.374 13.3642Z" fill="white"/>
<path d="M213.444 12.0871L212.91 14.734C212.307 14.5715 211.796 14.5018 211.401 14.5018C209.799 14.5018 208.801 15.7788 208.801 17.915V23.7661H205.782V11.9013H208.592V13.6427C209.219 12.3657 210.194 11.7388 211.564 11.7388C212.075 11.7388 212.701 11.8549 213.444 12.0871Z" fill="white"/>
<path d="M201.984 19.9584L203.679 21.8159C202.007 23.5109 200.405 24.1378 198.385 24.1378C194.554 24.1378 192.162 21.6766 192.162 17.8919C192.162 14.2001 194.438 11.5067 198.129 11.5067C201.682 11.5067 203.679 13.7125 203.679 17.4275C203.679 17.8687 203.655 18.2634 203.632 18.6117H195.111C195.39 20.446 196.481 21.5837 198.454 21.5837C199.128 21.5837 199.685 21.4676 200.149 21.2354C200.637 21.0032 201.241 20.5853 201.984 19.9584ZM195.181 16.4523H200.73C200.614 14.8502 199.639 13.875 198.036 13.875C196.481 13.875 195.529 14.8502 195.181 16.4523Z" fill="white"/>
<path d="M188.714 23.7664L185.371 18.3564L183.676 20.0746V23.7664H180.657V7.28101H183.676V16.7311L188.227 11.9016H191.849L187.484 16.406L192.081 23.7664H188.714Z" fill="white"/>
<path d="M178.02 15.7558V23.7663H175.304V22.5357C174.561 23.5573 173.261 24.161 171.473 24.161C169.035 24.161 167.224 23.0233 167.224 20.771C167.224 18.2634 169.197 17.1489 172.355 16.5916L175.141 16.0808V15.8022C175.141 14.6645 174.305 13.9911 172.912 13.9911C172.169 13.9911 171.542 14.1304 171.055 14.4323C170.567 14.7341 169.94 15.2217 169.22 15.9183L167.317 14.1769C168.826 12.389 170.567 11.5067 172.866 11.5067C176.186 11.5067 178.02 13.1785 178.02 15.7558ZM175.141 18.9367V18.2402L173.144 18.6581C171.124 19.0993 170.172 19.5404 170.172 20.5621C170.172 21.3051 170.846 21.7462 171.983 21.7462C173.725 21.7462 175.141 20.8639 175.141 18.9367Z" fill="white"/>
<path d="M164.026 19.9584L165.721 21.8159C164.049 23.5109 162.447 24.1378 160.427 24.1378C156.596 24.1378 154.204 21.6766 154.204 17.8919C154.204 14.2001 156.48 11.5067 160.171 11.5067C163.724 11.5067 165.721 13.7125 165.721 17.4275C165.721 17.8687 165.697 18.2634 165.674 18.6117H157.153C157.432 20.446 158.523 21.5837 160.496 21.5837C161.17 21.5837 161.727 21.4676 162.191 21.2354C162.679 21.0032 163.283 20.5853 164.026 19.9584ZM157.223 16.4523H162.772C162.656 14.8502 161.681 13.875 160.078 13.875C158.523 13.875 157.571 14.8502 157.223 16.4523Z" fill="white"/>
<path d="M152.615 17.8224C152.615 21.6303 150.363 24.0915 147.344 24.0915C145.789 24.0915 144.605 23.5807 143.792 22.5359V27.9458H140.773V11.9016H143.583V13.4573C144.442 12.1803 145.696 11.5533 147.368 11.5533C150.409 11.5533 152.615 14.061 152.615 17.8224ZM149.55 17.8224C149.55 15.5934 148.436 14.1539 146.671 14.1539C144.906 14.1539 143.676 15.5934 143.676 17.8224C143.676 20.0747 144.906 21.4678 146.648 21.4678C148.389 21.4678 149.55 20.0514 149.55 17.8224Z" fill="white"/>
<path d="M138.484 9.46362L136.58 11.7391C135.628 10.9496 134.839 10.4156 134.165 10.137C133.492 9.85834 132.726 9.71902 131.82 9.71902C129.986 9.71902 128.802 10.5549 128.802 11.7391C128.802 12.157 128.941 12.4821 129.196 12.7375C129.475 12.9929 129.87 13.2019 130.381 13.3644C130.891 13.5269 131.704 13.7359 132.819 13.9913C137.044 15.0361 138.6 15.9649 138.693 18.7976C138.693 21.9321 136.162 24.1611 132.168 24.1611C130.706 24.1611 129.429 23.929 128.337 23.4878C127.246 23.0234 126.085 22.234 124.854 21.1195L126.805 18.8208C127.896 19.7728 128.825 20.4461 129.591 20.7944C130.357 21.1427 131.24 21.3284 132.238 21.3284C134.165 21.3284 135.466 20.4693 135.466 19.053C135.466 18.6118 135.326 18.2868 135.071 18.0314C134.537 17.4973 133.817 17.2884 132.076 16.9169L131.286 16.7311C126.875 15.663 125.597 14.4557 125.597 11.8319C125.597 9.0689 128.152 6.90955 131.89 6.90955C133.236 6.90955 134.397 7.09529 135.373 7.49002C136.371 7.88474 137.393 8.53486 138.484 9.46362Z" fill="white"/>
<path d="M118.667 17.8222C118.667 21.5837 116.09 24.1378 112.514 24.1378C108.915 24.1378 106.338 21.5837 106.338 17.8222C106.338 14.0608 108.915 11.5067 112.514 11.5067C116.09 11.5067 118.667 14.0608 118.667 17.8222ZM109.403 17.8222C109.403 20.1209 110.633 21.5837 112.514 21.5837C114.372 21.5837 115.602 20.1209 115.602 17.8222C115.602 15.57 114.372 14.0608 112.514 14.0608C110.633 14.0608 109.403 15.57 109.403 17.8222Z" fill="white"/>
<path d="M105.917 12.0871L105.383 14.734C104.779 14.5715 104.269 14.5018 103.874 14.5018C102.272 14.5018 101.273 15.7788 101.273 17.915V23.7661H98.2549V11.9013H101.064V13.6427C101.691 12.3657 102.666 11.7388 104.036 11.7388C104.547 11.7388 105.174 11.8549 105.917 12.0871Z" fill="white"/>
<path d="M96.1492 21.2125L96.4975 23.604C95.6152 23.9059 94.7328 24.0452 93.8273 24.0452C91.4822 24.0452 90.4606 22.9539 90.4606 20.7017V14.2004H88.3477V11.9017H90.4606V8.23315H93.479V11.9017H96.3117V14.2004H93.479V20.3302C93.479 21.1428 93.8273 21.4215 94.6632 21.4215C95.0811 21.4215 95.5687 21.3518 96.1492 21.2125Z" fill="white"/>
<path d="M87.2602 13.3642L85.6349 15.3378C84.2418 14.2465 83.3594 13.9447 82.0824 13.9447C80.875 13.9447 80.0856 14.4091 80.0856 15.1289C80.0856 15.3843 80.1785 15.57 80.341 15.7093C80.7125 15.9879 81.1769 16.104 82.8486 16.4755C86.1921 17.2185 87.446 18.0544 87.446 20.2602C87.446 22.5821 85.5188 24.1378 82.361 24.1378C80.1088 24.1378 78.5067 23.5573 76.626 21.8855L78.3674 19.9352C79.2265 20.6317 79.9231 21.0961 80.5035 21.3515C81.084 21.5837 81.7109 21.6998 82.4307 21.6998C83.6381 21.6998 84.4972 21.2586 84.4972 20.446C84.4972 20.1441 84.3811 19.8887 84.1489 19.7262C83.9167 19.5404 83.6381 19.4011 83.313 19.3315C82.9879 19.2386 82.4075 19.0993 81.5716 18.9135C78.1816 18.1705 77.2064 17.3346 77.2064 15.2217C77.2064 13.1785 79.0407 11.5067 82.1521 11.5067C84.1953 11.5067 85.6117 11.9943 87.2602 13.3642Z" fill="white"/>
<path d="M72.6792 23.7664L71.5647 20.4693H64.3901L63.2524 23.7664H59.9785L65.8761 7.28101H70.1484L76.046 23.7664H72.6792ZM65.3188 17.7759H70.636L69.9858 15.872L69.5911 14.711C68.9178 12.8071 68.3605 11.1586 67.9658 9.78864C67.6407 10.9264 67.037 12.7374 66.1779 15.2218L65.9458 15.9184L65.3188 17.7759Z" fill="white"/>
<path d="M44.4535 29.9624C41.4721 28.1893 41.4274 23.9361 41.4274 23.8915C41.4274 23.7774 41.419 23.6967 41.4386 23.5547C42.1791 21.9486 42.5898 20.2451 42.791 18.4886C39.4575 20.9911 35.5708 23.5018 31.2985 25.84C27.0263 28.1782 22.8182 30.1044 18.9092 31.5685C23.6146 33.8455 29.3175 33.89 34.2492 31.1872C34.5733 31.0091 34.8863 30.8226 35.1936 30.6277C37.3368 31.7801 39.4324 32.0919 41.0698 32.0919C42.8944 32.0919 44.1462 31.7049 44.2579 31.6715C44.6128 31.5574 44.8671 31.2484 44.9118 30.8782C44.9537 30.508 44.7749 30.1489 44.4563 29.9597L44.4535 29.9624Z" fill="url(#paint0_linear_137_960)"/>
<path d="M52.2002 2.55799C50.588 -0.364737 43.9742 -0.0668975 35.4855 2.80294C35.4491 2.77789 35.4128 2.75562 35.3765 2.73057C30.3777 -0.534534 23.7807 -1.01052 18.1783 2.05973C12.576 5.12721 9.44376 10.9309 9.53317 16.8849C9.53317 16.9267 9.53317 16.9712 9.53317 17.013C2.55053 22.619 -1.24396 28.0219 0.368279 30.9446C1.99169 33.8868 8.67815 33.5639 17.2479 30.644C21.3944 29.23 25.9797 27.2091 30.646 24.6538C35.3122 22.0985 39.4839 19.3233 42.9012 16.5954C49.9677 10.9532 53.8236 5.5002 52.2002 2.56077V2.55799ZM11.2376 23.9496C9.58626 24.1528 8.47139 23.9579 8.10814 23.2982C7.68343 22.53 8.33726 21.2412 9.807 19.6629C10.078 21.1187 10.553 22.5606 11.2376 23.9496ZM42.5156 13.077C39.0369 16.0109 34.4432 19.1368 29.1874 22.015C23.9316 24.8932 18.821 27.0838 14.4705 28.4367C8.06623 30.4297 3.30496 30.6134 2.14537 28.5146C0.932702 26.3184 3.956 22.1375 9.55552 17.578C9.5695 17.8258 9.58905 18.0735 9.6142 18.3184C5.22735 22.0512 2.92215 25.3608 3.89732 27.1256C4.81102 28.7846 8.43506 28.7373 13.445 27.3232C17.7425 26.1124 23.057 23.8939 28.5615 20.8793C34.066 17.8647 38.7938 14.5801 42.1244 11.6157C46.0055 8.15849 47.9866 5.13834 47.0701 3.47934C46.0977 1.71457 42.0574 1.8788 36.5417 3.56842C36.3461 3.41532 36.1477 3.26501 35.9437 3.12305C42.809 0.857241 47.9698 0.553834 49.1825 2.75284C50.3393 4.85163 47.6345 8.75696 42.5128 13.077H42.5156ZM37.5783 4.45637C39.7019 4.06667 41.1437 4.20585 41.5684 4.97411C41.9316 5.63381 41.5013 6.67764 40.4451 7.95529C39.6348 6.63589 38.668 5.46402 37.5783 4.45637Z" fill="url(#paint1_linear_137_960)"/>
<defs>
<linearGradient id="paint0_linear_137_960" x1="31.9135" y1="18.4886" x2="31.9135" y2="33.2474" gradientUnits="userSpaceOnUse">
<stop stop-color="#85C1FC"/>
<stop offset="1" stop-color="#5F7FF0"/>
</linearGradient>
<linearGradient id="paint1_linear_137_960" x1="26.2843" y1="0" x2="26.2843" y2="32.9988" gradientUnits="userSpaceOnUse">
<stop stop-color="#85C1FC"/>
<stop offset="1" stop-color="#5F7FF0"/>
</linearGradient>
</defs>
</svg>
