<svg width="18" height="19" viewBox="0 0 18 19" fill="none" xmlns="http://www.w3.org/2000/svg">
<path d="M8.98166 18.2297C8.11963 18.2297 7.26208 18.1053 6.43551 17.8602C6.82647 17.2638 7.13088 16.6149 7.33962 15.9328C7.45017 15.532 7.97241 13.4587 7.97241 13.4587C8.21559 13.8142 8.54377 14.1032 8.92702 14.2991C9.31027 14.495 9.73639 14.5916 10.1665 14.5803C13.0558 14.5803 15.0153 11.9431 15.0153 8.41183C15.0153 5.74268 12.7574 3.25553 9.32616 3.25553C5.0573 3.25553 2.90529 6.32217 2.90529 8.87855C2.90529 10.4268 3.48994 11.7998 4.74537 12.3174C4.78889 12.3402 4.83717 12.3523 4.88629 12.3527C4.9354 12.3532 4.98386 12.3419 5.02778 12.3199C5.0717 12.2979 5.10982 12.2657 5.13889 12.226C5.16796 12.1864 5.18718 12.1404 5.19502 12.0918C5.23572 11.9342 5.33543 11.5341 5.37816 11.3697C5.41293 11.2831 5.41911 11.1876 5.3958 11.0973C5.37249 11.007 5.32088 10.9265 5.24859 10.8677C4.83996 10.3725 4.62907 9.74323 4.65653 9.10138C4.64964 8.52315 4.76029 7.9495 4.98175 7.41545C5.20321 6.88141 5.53084 6.39816 5.94472 5.99498C6.35859 5.5918 6.85 5.27713 7.38913 5.07025C7.92826 4.86337 8.5038 4.76862 9.08068 4.79161C11.4925 4.79161 12.8191 6.26845 12.8191 8.24059C12.8191 10.8357 11.6729 13.0253 9.97054 13.0253C9.75321 13.0364 9.53632 12.9961 9.33734 12.9079C9.13836 12.8196 8.96284 12.6859 8.82493 12.5173C8.68702 12.3487 8.59058 12.15 8.54335 11.9372C8.49612 11.7244 8.49944 11.5035 8.55304 11.2923C8.82433 10.1523 9.34653 8.92197 9.34653 8.09928C9.36737 7.92836 9.35141 7.75499 9.29975 7.59076C9.24809 7.42654 9.16196 7.27526 9.04706 7.14718C8.93217 7.0191 8.7912 6.91719 8.63368 6.84823C8.47616 6.77927 8.30574 6.74485 8.13385 6.74739C7.17346 6.74739 6.40091 7.74334 6.40091 9.07758C6.39446 9.56812 6.49232 10.0544 6.68787 10.5042C6.68787 10.5042 5.70504 14.6781 5.53481 15.4084C5.39237 16.0876 5.33994 16.7827 5.37882 17.4756C3.343 16.582 1.71008 14.9644 0.795633 12.9351C-0.118819 10.9059 -0.24989 8.60928 0.4277 6.4889C1.10529 4.36852 2.54349 2.57487 4.46437 1.45467C6.38525 0.33447 8.65245 -0.0328368 10.8279 0.423708C13.0034 0.880252 14.9328 2.12828 16.2432 3.92659C17.5536 5.72489 18.152 7.94589 17.9228 10.1604C17.6937 12.3749 16.6532 14.4256 15.0024 15.9165C13.3516 17.4074 11.2078 18.2325 8.98505 18.2324L8.98166 18.2297Z" fill="white"/>
</svg>
