<svg width="19" height="19" viewBox="0 0 19 19" fill="none" xmlns="http://www.w3.org/2000/svg">
<g clip-path="url(#clip0_133_294)">
<path fill-rule="evenodd" clip-rule="evenodd" d="M18.0074 3.81556C18.3022 4.11139 18.5139 4.47923 18.6213 4.88227C19.0186 6.36987 19.0186 9.47208 19.0186 9.47208C19.0186 9.47208 19.0186 12.5743 18.6213 14.0619C18.5139 14.4649 18.3022 14.8328 18.0074 15.1286C17.7126 15.4244 17.345 15.6379 16.9415 15.7476C15.4561 16.1458 9.51855 16.1458 9.51855 16.1458C9.51855 16.1458 3.58105 16.1458 2.0956 15.7476C1.69208 15.6379 1.32453 15.4244 1.02974 15.1286C0.734947 14.8328 0.523247 14.4649 0.415827 14.0619C0.0185547 12.5743 0.0185547 9.47208 0.0185547 9.47208C0.0185547 9.47208 0.0185547 6.36987 0.415827 4.88227C0.523247 4.47923 0.734947 4.11139 1.02974 3.81556C1.32453 3.51974 1.69208 3.3063 2.0956 3.19661C3.58105 2.79834 9.51855 2.79834 9.51855 2.79834C9.51855 2.79834 15.4561 2.79834 16.9415 3.19661C17.345 3.3063 17.7126 3.51974 18.0074 3.81556ZM12.5413 9.47224L7.57544 6.65527V12.2892L12.5413 9.47224Z" fill="white"/>
</g>
<defs>
<clipPath id="clip0_133_294">
<rect width="19" height="18.9448" fill="white"/>
</clipPath>
</defs>
</svg>
