<svg width="16" height="16" viewBox="0 0 16 16" fill="none" xmlns="http://www.w3.org/2000/svg">
<path fill-rule="evenodd" clip-rule="evenodd" d="M15 8C15 11.8664 11.8664 15 8 15C4.13356 15 1 11.8664 1 8C1 4.13356 4.13356 1 8 1C11.8664 1 15 4.13356 15 8V8Z" stroke="#5E7EF0" stroke-linecap="round" stroke-linejoin="round"/>
<path d="M3.73828 2.52173C3.73828 2.76216 4.51072 2.63129 4.65132 2.82608C4.91793 3.19616 4.54663 4.20782 4.65132 4.65216C4.72924 4.98329 5.06098 5.59382 5.26002 5.86955C6.0148 6.91712 8.91219 8.23068 8.91219 9.52173C8.91219 9.73721 8.3035 9.91495 8.3035 10.1304C8.3035 10.7762 9.88246 11.36 10.1296 11.9565C10.2458 12.2377 10.2172 12.8823 10.1296 13.1739C9.97072 13.6986 8.93167 14.9385 8.93167 14.9385" stroke="#5E7EF0" stroke-linecap="round" stroke-linejoin="round"/>
<path d="M7.6962 1C7.6962 1.30435 7.57994 1.93617 7.6962 2.21739C7.77899 2.41583 8.08942 2.82609 8.3049 2.82609C8.51977 2.82609 8.69812 2.21739 8.91359 2.21739C9.12846 2.21739 9.34759 2.70009 9.52229 2.82609C9.79803 3.02513 10.6849 3.09878 10.7397 3.43478C10.7744 3.64722 10.257 3.86878 10.131 4.04348C9.73351 4.59557 9.49246 6.12035 8.91359 6.47826C8.65429 6.63835 7.81246 6.19704 7.6962 6.47826C7.44907 7.07417 8.92577 8.05722 9.52229 8.30435C9.94412 8.47904 10.9266 8.12965 11.3484 8.30435C11.5468 8.38713 11.7739 8.79983 11.9571 8.91304C12.3667 9.16626 13.5019 9.13096 13.7832 9.52174C14.1392 10.0154 13.7832 11.9565 13.7832 11.9565" stroke="#5E7EF0" stroke-linecap="round" stroke-linejoin="round"/>
</svg>
