<svg width="18" height="19" viewBox="0 0 18 19" fill="none" xmlns="http://www.w3.org/2000/svg">
<path fill-rule="evenodd" clip-rule="evenodd" d="M8.71635 0.232422C6.31935 0.232422 6.02881 0.232422 5.15717 0.307422C4.2129 0.307422 3.55917 0.457422 2.97808 0.682422C2.46963 0.907422 1.96118 1.20742 1.45272 1.73242C0.944271 2.25742 0.653726 2.70742 0.435817 3.30742C0.217909 3.90742 0.0726362 4.58242 0.0726362 5.55742C0 6.45742 0 6.75742 0 9.23242C0 11.7074 0 12.0074 0.0726362 12.9074C0.145272 13.8824 0.290545 14.4824 0.508453 15.0824C0.653726 15.6824 0.944271 16.2074 1.45272 16.7324C1.96118 17.2574 2.397 17.5574 2.97808 17.7824C3.55917 18.0074 4.14026 18.1574 5.08454 18.2324H8.71635H8.71653C11.1134 18.2324 11.4039 18.2324 12.2755 18.1574C13.2198 18.0824 13.8009 17.9324 14.382 17.7074C14.9631 17.4824 15.4715 17.1824 15.9073 16.6574C16.4158 16.1324 16.7063 15.6824 16.9242 15.0824C17.1421 14.4824 17.2874 13.8824 17.3601 12.9074C17.4327 12.0074 17.4327 11.7074 17.4327 9.23242C17.4327 6.75742 17.4327 6.45742 17.3601 5.55742C17.2874 4.58242 17.1421 3.98242 16.9242 3.38242C16.779 2.78242 16.4884 2.25742 15.98 1.73242C15.4715 1.20742 15.0357 0.907422 14.4546 0.682422C13.8735 0.457422 13.2924 0.307422 12.3482 0.232422H8.71635ZM8.71638 1.88242C11.0407 1.88242 11.3313 1.88242 12.2756 1.95742C13.1472 2.03242 13.583 2.10742 13.8736 2.25742C14.3094 2.40742 14.5999 2.63242 14.8905 2.93242C15.181 3.23242 15.3989 3.53242 15.5442 3.98242C15.6895 4.28242 15.8347 4.80742 15.8347 5.63242C15.9074 6.60742 15.9074 6.83242 15.9074 9.23242C15.9074 11.6324 15.9074 11.9324 15.8347 12.8324C15.7731 13.5962 15.6591 14.0359 15.5817 14.3348C15.5678 14.3882 15.5552 14.437 15.5442 14.4824C15.3989 14.9324 15.181 15.2324 14.8905 15.5324C14.5999 15.8324 14.3094 16.0574 13.8736 16.2074C13.583 16.3574 13.0746 16.5074 12.2756 16.5074C11.3313 16.5824 11.1134 16.5824 8.71638 16.5824C6.39202 16.5824 6.10147 16.5824 5.1572 16.5074C4.41753 16.4438 3.9917 16.3261 3.70216 16.2461C3.65051 16.2318 3.60319 16.2188 3.55921 16.2074C3.12339 16.0574 2.83284 15.8324 2.5423 15.5324C2.25175 15.2324 2.03384 14.9324 1.88857 14.4824C1.7433 14.1824 1.59803 13.6574 1.59803 12.8324C1.59803 12.4529 1.58702 12.187 1.57358 11.8622C1.55248 11.3527 1.52539 10.6982 1.52539 9.23242C1.52539 6.83242 1.52539 6.53242 1.59803 5.55742C1.59803 4.73242 1.7433 4.20742 1.88857 3.90742C2.03384 3.45742 2.25175 3.15742 2.5423 2.85742C2.83284 2.55742 3.12339 2.33242 3.55921 2.18242C3.84975 2.03242 4.3582 1.88242 5.1572 1.88242C6.10147 1.80742 6.31938 1.80742 8.71638 1.88242ZM4.21094 9.2335C4.21094 6.6835 6.24475 4.5835 8.71439 4.5835C11.184 4.5835 13.2178 6.6835 13.2178 9.2335C13.2178 11.7835 11.184 13.8835 8.71439 13.8835C6.24475 13.8835 4.21094 11.7835 4.21094 9.2335ZM8.71795 12.2324C7.11995 12.2324 5.8125 10.8824 5.8125 9.23242C5.8125 7.58242 7.11995 6.23242 8.71795 6.23242C10.3159 6.23242 11.6234 7.58242 11.6234 9.23242C11.6234 10.8824 10.3159 12.2324 8.71795 12.2324ZM13.3665 5.47988C13.9476 5.47988 14.3834 5.02988 14.3834 4.42988C14.3834 3.82988 13.9476 3.37988 13.3665 3.37988C12.7854 3.37988 12.3496 3.82988 12.3496 4.42988C12.3496 5.02988 12.7854 5.47988 13.3665 5.47988Z" fill="white"/>
</svg>
