<svg width="17" height="17" viewBox="0 0 17 17" fill="none" xmlns="http://www.w3.org/2000/svg">
<path fill-rule="evenodd" clip-rule="evenodd" d="M7.98217 15.5396L15.2357 8.28543C15.7254 7.7963 16 7.13304 16 6.44109V2.30435C16 1.5837 15.4163 1 14.6957 1H10.5589C9.86696 1 9.2037 1.27457 8.71391 1.7637L1.46043 9.01783C1.16565 9.31261 1 9.71239 1 10.1291V10.1317C1 10.5485 1.16565 10.9483 1.46043 11.243L5.75696 15.5396C6.05174 15.8343 6.45152 16 6.86826 16H6.87087C7.28761 16 7.68739 15.8343 7.98217 15.5396Z" stroke="#5E7EF0" stroke-linecap="round" stroke-linejoin="round"/>
<path fill-rule="evenodd" clip-rule="evenodd" d="M13.6925 4.46146C13.6925 5.09896 13.1761 5.61531 12.5386 5.61531C11.9011 5.61531 11.3848 5.09896 11.3848 4.46146C11.3848 3.82396 11.9011 3.30762 12.5386 3.30762C13.1761 3.30762 13.6925 3.82396 13.6925 4.46146Z" stroke="#5E7EF0" stroke-linecap="round" stroke-linejoin="round"/>
</svg>
