<svg width="16" height="16" viewBox="0 0 16 16" fill="none" xmlns="http://www.w3.org/2000/svg">
<path d="M10.6675 4.00003C10.6675 5.71914 9.27553 7.11114 7.55642 7.11114C7.14783 7.11126 6.74322 7.03086 6.36571 6.87456C5.9882 6.71825 5.64519 6.48909 5.35628 6.20018C5.06736 5.91126 4.8382 5.56825 4.68189 5.19074C4.52559 4.81323 4.4452 4.40862 4.44531 4.00003C4.44531 2.28092 5.83731 0.888916 7.55642 0.888916C9.27553 0.888916 10.6675 2.28092 10.6675 4.00003Z" stroke="#5E7EF0" stroke-linecap="round" stroke-linejoin="round"/>
<path d="M14.222 15.1111C14.222 11.5769 12.4851 7.11108 7.55534 7.11108C2.62556 7.11108 0.888672 11.5769 0.888672 15.1111H14.222Z" stroke="#5E7EF0" stroke-linecap="round" stroke-linejoin="round"/>
</svg>
